<svg width="26" height="20" viewBox="0 0 26 20" fill="none" xmlns="http://www.w3.org/2000/svg">
<path fill-rule="evenodd" clip-rule="evenodd" d="M3.025 0.900002C1.77402 0.900002 0.752735 1.91992 0.75 3.16953C0.75 3.1709 0.75 3.1709 0.75 3.17227C0.75 3.17363 0.75 3.17363 0.75 3.175V17.525C0.75 18.7773 1.77266 19.8 3.025 19.8H22.975C24.2273 19.8 25.25 18.7773 25.25 17.525V3.175C25.25 3.17363 25.25 3.17363 25.25 3.17227C25.25 3.1709 25.25 3.1709 25.25 3.16953C25.2473 1.91992 24.226 0.900002 22.975 0.900002H3.025ZM3.02504 1.6H22.975C23.3059 1.6 23.6122 1.70118 23.8651 1.87344L23.8131 1.96778L23.9444 2.25215L24.2506 2.31778L24.2875 2.30137C24.453 2.55157 24.55 2.84961 24.55 3.17364C24.55 3.17364 24.55 3.17364 24.55 3.175C24.5487 3.74649 24.2698 4.27969 23.8008 4.60645L13 12.1328L2.19926 4.60645C1.73032 4.27969 1.45141 3.74649 1.45004 3.175C1.45004 3.17364 1.45004 3.17364 1.45004 3.17364C1.45004 2.83731 1.55668 2.52832 1.73442 2.27266L1.93403 2.30137L2.15551 2.08125L2.1268 1.88028C2.3811 1.70528 2.69008 1.6 3.02504 1.6ZM3.01228 2.43809L2.6395 2.81842L2.71543 3.34809L2.8627 3.49509L2.91103 3.53009L3.43338 3.60475L3.80616 3.22909L3.73023 2.69709L3.58295 2.54775L3.53693 2.51509L3.01228 2.43809ZM23.1008 2.44219L22.9232 2.52699L22.8749 2.56137L22.6359 3.02208L22.8464 3.50113L23.3376 3.60885L23.5175 3.52405L23.5635 3.48967L23.8026 3.02896L23.592 2.55221L23.1008 2.44219ZM4.18934 3.2584L3.81656 3.63797L3.8925 4.16658L4.03977 4.31562L4.08579 4.34822L4.61044 4.42507L4.98323 4.04782L4.90729 3.51688L4.76002 3.37018L4.71169 3.33525L4.18934 3.2584ZM21.9251 3.2625L21.7434 3.34714L21.6974 3.38145L21.4588 3.84126L21.669 4.31936L22.1593 4.42917L22.3388 4.34224L22.3847 4.30792L22.6255 3.84812L22.4154 3.3723L21.9251 3.2625ZM5.36881 4.07871L4.99373 4.45829L5.06967 4.9869L5.21694 5.13593L5.26526 5.16853L5.78761 5.24538L6.1604 4.86813L6.08676 4.33953L5.93949 4.19049L5.88886 4.15789L5.36881 4.07871ZM20.7456 4.08281L20.5665 4.16745L20.5206 4.20177L20.2803 4.66157L20.49 5.13967L20.9816 5.24948L21.1607 5.16255L21.2066 5.12824L21.4469 4.66843L21.2372 4.19262L20.7456 4.08281ZM1.45004 4.87715C1.55668 4.98789 1.67153 5.09043 1.80004 5.18066L3.19184 6.15C3.0018 6.15547 2.85004 6.30996 2.85004 6.5C2.85004 6.69277 3.00727 6.85 3.20004 6.85C3.39282 6.85 3.55004 6.69277 3.55004 6.5C3.55004 6.46172 3.54321 6.42344 3.5309 6.38652L13 12.9859L22.4692 6.38652C22.4569 6.42344 22.45 6.46172 22.45 6.5C22.45 6.69277 22.6073 6.85 22.8 6.85C22.9928 6.85 23.15 6.69277 23.15 6.5C23.15 6.30996 22.9983 6.1541 22.8082 6.15L24.2 5.18066C24.3286 5.09043 24.4434 4.98789 24.55 4.87715V17.525C24.55 18.3398 23.9389 18.9947 23.15 19.0822C23.1405 18.8963 22.986 18.75 22.8 18.75C22.6073 18.75 22.45 18.9072 22.45 19.1H3.55004C3.55004 18.9072 3.39282 18.75 3.20004 18.75C3.01411 18.75 2.85961 18.8963 2.85004 19.0822C2.06118 18.9947 1.45004 18.3398 1.45004 17.525V4.87715ZM6.54598 4.89902L6.1709 5.2786L6.24684 5.80721L6.39411 5.95624L6.44243 5.98885L6.96478 6.06569L7.33757 5.68845L7.26393 5.15984L7.11666 5.0108L7.06833 4.9782L6.54598 4.89902ZM19.5693 4.90312L19.3898 4.98776L19.3439 5.02208L19.1031 5.48417L19.3132 5.95999L19.8057 6.06979L19.9852 5.98286L20.0312 5.94855L20.2698 5.48874L20.0596 5.01293L19.5693 4.90312ZM7.72297 5.71934L7.34946 6.09816L7.42554 6.62571L7.5708 6.77445L7.61922 6.80699L8.14261 6.886L8.51612 6.50719L8.44004 5.97963L8.29478 5.83089L8.24636 5.79835L7.72297 5.71934ZM18.3922 5.72344L18.2124 5.80808L18.1664 5.8424L17.9273 6.30449L18.1378 6.78259L18.6291 6.89011L18.8067 6.80318L18.855 6.77116L19.094 6.30906L18.8835 5.83325L18.3922 5.72344ZM8.8993 6.54102L8.52652 6.91826L8.60016 7.44687L8.74743 7.59591L8.79575 7.62851L9.3181 7.70768L9.69319 7.32811L9.61495 6.7995L9.46998 6.65047L9.42165 6.61786L8.8993 6.54102ZM17.2151 6.54376L17.0352 6.63051L16.9892 6.66248L16.7502 7.12366L16.9607 7.60083L17.4519 7.71042L17.6295 7.62138L17.6756 7.58942L17.9168 7.12823L17.7063 6.65334L17.2151 6.54376ZM10.0766 7.36133L9.7023 7.73858L9.77809 8.26718L9.92507 8.41622L9.97559 8.44882L10.4946 8.528L10.869 8.14842L10.7932 7.61981L10.6462 7.47078L10.598 7.43818L10.0766 7.36133ZM16.0379 7.36407L15.8584 7.45083L15.8125 7.48279L15.5717 7.94398L15.7818 8.42115L16.2721 8.53074L16.4538 8.44169L16.4976 8.40973L16.7384 7.94854L16.5282 7.47366L16.0379 7.36407ZM3.43335 7.55C3.11207 7.55 2.85002 7.81205 2.85002 8.13333C2.85002 8.45462 3.11207 8.71667 3.43335 8.71667C3.75464 8.71667 4.01669 8.45462 4.01669 8.13333C4.01669 7.81205 3.75464 7.55 3.43335 7.55ZM23.0334 7.55C22.7121 7.55 22.45 7.81205 22.45 8.13333C22.45 8.45462 22.7121 8.71667 23.0334 8.71667C23.3547 8.71667 23.6167 8.45462 23.6167 8.13333C23.6167 7.81205 23.3547 7.55 23.0334 7.55ZM11.2544 8.18164L10.8809 8.55889L10.9569 9.08983L11.1045 9.23653L11.1529 9.26913L11.6763 9.34831L12.0475 8.96874L11.9737 8.44013L11.8262 8.29109L11.7778 8.25849L11.2544 8.18164ZM14.8586 8.18438L14.6813 8.27114L14.6331 8.30539L14.3945 8.76657L14.6047 9.24146L15.095 9.35105L15.2766 9.26429L15.3226 9.23004L15.5612 8.76886L15.3511 8.29397L14.8586 8.18438ZM3.43335 8.95001C3.11207 8.95001 2.85002 9.21205 2.85002 9.53334C2.85002 9.85463 3.11207 10.1167 3.43335 10.1167C3.75464 10.1167 4.01669 9.85463 4.01669 9.53334C4.01669 9.21205 3.75464 8.95001 3.43335 8.95001ZM23.0334 8.95001C22.7121 8.95001 22.45 9.21205 22.45 9.53334C22.45 9.85463 22.7121 10.1167 23.0334 10.1167C23.3547 10.1167 23.6167 9.85463 23.6167 9.53334C23.6167 9.21205 23.3547 8.95001 23.0334 8.95001ZM12.4308 9.00196L12.058 9.3792L12.134 9.91014L12.2812 10.0568L12.3273 10.0918L12.8519 10.1686L13.2247 9.78905L13.1488 9.26044L13.0015 9.11373L12.9532 9.0788L12.4308 9.00196ZM13.6836 9.00469L13.5019 9.09373L13.4559 9.1257L13.2174 9.58688L13.4275 10.0618L13.92 10.1714L14.0973 10.0846L14.1454 10.0526L14.384 9.59145L14.1739 9.11428L13.6836 9.00469ZM3.43335 10.35C3.11207 10.35 2.85002 10.612 2.85002 10.9333C2.85002 11.2546 3.11207 11.5167 3.43335 11.5167C3.75464 11.5167 4.01669 11.2546 4.01669 10.9333C4.01669 10.612 3.75464 10.35 3.43335 10.35ZM23.0334 10.35C22.7121 10.35 22.45 10.612 22.45 10.9333C22.45 11.2546 22.7121 11.5167 23.0334 11.5167C23.3547 11.5167 23.6167 11.2546 23.6167 10.9333C23.6167 10.612 23.3547 10.35 23.0334 10.35ZM3.43335 11.75C3.11207 11.75 2.85002 12.012 2.85002 12.3333C2.85002 12.6546 3.11207 12.9167 3.43335 12.9167C3.75464 12.9167 4.01669 12.6546 4.01669 12.3333C4.01669 12.012 3.75464 11.75 3.43335 11.75ZM23.0334 11.75C22.7121 11.75 22.45 12.012 22.45 12.3333C22.45 12.6546 22.7121 12.9167 23.0334 12.9167C23.3547 12.9167 23.6167 12.6546 23.6167 12.3333C23.6167 12.012 23.3547 11.75 23.0334 11.75ZM3.43335 13.15C3.11207 13.15 2.85002 13.4121 2.85002 13.7333C2.85002 14.0546 3.11207 14.3167 3.43335 14.3167C3.75464 14.3167 4.01669 14.0546 4.01669 13.7333C4.01669 13.4121 3.75464 13.15 3.43335 13.15ZM23.0334 13.15C22.7121 13.15 22.45 13.4121 22.45 13.7333C22.45 14.0546 22.7121 14.3167 23.0334 14.3167C23.3547 14.3167 23.6167 14.0546 23.6167 13.7333C23.6167 13.4121 23.3547 13.15 23.0334 13.15ZM3.43335 14.55C3.11207 14.55 2.85002 14.812 2.85002 15.1333C2.85002 15.4546 3.11207 15.7167 3.43335 15.7167C3.75464 15.7167 4.01669 15.4546 4.01669 15.1333C4.01669 14.812 3.75464 14.55 3.43335 14.55ZM23.0334 14.55C22.7121 14.55 22.45 14.812 22.45 15.1333C22.45 15.4546 22.7121 15.7167 23.0334 15.7167C23.3547 15.7167 23.6167 15.4546 23.6167 15.1333C23.6167 14.812 23.3547 14.55 23.0334 14.55ZM3.43335 15.95C3.11207 15.95 2.85002 16.212 2.85002 16.5333C2.85002 16.8546 3.11207 17.1167 3.43335 17.1167C3.75464 17.1167 4.01669 16.8546 4.01669 16.5333C4.01669 16.212 3.75464 15.95 3.43335 15.95ZM23.0334 15.95C22.7121 15.95 22.45 16.212 22.45 16.5333C22.45 16.8546 22.7121 17.1167 23.0334 17.1167C23.3547 17.1167 23.6167 16.8546 23.6167 16.5333C23.6167 16.212 23.3547 15.95 23.0334 15.95ZM3.43335 17.35C3.11207 17.35 2.85002 17.612 2.85002 17.9333C2.85002 18.2546 3.11207 18.5167 3.43335 18.5167C3.75464 18.5167 4.01669 18.2546 4.01669 17.9333C4.01669 17.612 3.75464 17.35 3.43335 17.35ZM23.0334 17.35C22.7121 17.35 22.45 17.612 22.45 17.9333C22.45 18.2546 22.7121 18.5167 23.0334 18.5167C23.3547 18.5167 23.6167 18.2546 23.6167 17.9333C23.6167 17.612 23.3547 17.35 23.0334 17.35Z" fill="white"/>
</svg>
