<svg width="21" height="18" viewBox="0 0 21 18" fill="none" xmlns="http://www.w3.org/2000/svg">
<path fill-rule="evenodd" clip-rule="evenodd" d="M21 2.02347C20.2275 2.36526 19.397 2.59769 18.5254 2.70023C19.4141 2.16702 20.0977 1.32278 20.4189 0.317901C19.5884 0.810089 18.6655 1.16897 17.6846 1.3638C16.8984 0.526397 15.7773 3.05176e-05 14.54 3.05176e-05C12.1611 3.05176e-05 10.23 1.93118 10.23 4.31009C10.23 4.64847 10.2676 4.97659 10.3428 5.29105C6.76074 5.11331 3.58545 3.39749 1.46289 0.789581C1.09033 1.42532 0.878418 2.16702 0.878418 2.95657C0.878418 4.45023 1.63721 5.76956 2.7959 6.54202C2.08838 6.5181 1.42529 6.32669 0.844239 6.00198C0.844239 6.02249 0.844239 6.03958 0.844239 6.05667C0.844239 8.14505 2.32764 9.88822 4.29981 10.2813C3.9375 10.3804 3.55811 10.4351 3.16504 10.4351C2.88818 10.4351 2.61475 10.4077 2.35498 10.3565C2.90185 12.0689 4.49463 13.313 6.37793 13.3506C4.90479 14.5059 3.04541 15.1929 1.02881 15.1929C0.680176 15.1929 0.338379 15.1724 0 15.1314C1.90723 16.355 4.16992 17.0694 6.60352 17.0694C14.5298 17.0694 18.8638 10.5034 18.8638 4.80911C18.8638 4.62454 18.8569 4.43655 18.8501 4.25198C19.6909 3.64358 20.4224 2.8848 21 2.02347Z" fill="white"/>
</svg>
