<svg width="34" height="32" viewBox="0 0 34 32" fill="none" xmlns="http://www.w3.org/2000/svg">
<path fill-rule="evenodd" clip-rule="evenodd" d="M17.0001 0.7146C16.8522 0.7146 16.7048 0.761509 16.579 0.856709L0.939045 13.0635C0.646645 13.2947 0.592299 13.7219 0.823499 14.0211C1.0547 14.3135 1.48188 14.3678 1.78108 14.1366L2.72006 13.4035V31.2801C2.72006 31.6541 3.02606 31.9601 3.40006 31.9601H12.9201V19.7201H21.0801V31.9601H30.6001C30.9741 31.9601 31.2801 31.6541 31.2801 31.2801V13.4035L32.219 14.1366C32.3482 14.2318 32.4905 14.2801 32.6401 14.2801C32.8441 14.2801 33.0406 14.1911 33.1766 14.0211C33.4078 13.7219 33.3535 13.2947 33.0611 13.0635L17.4211 0.856709C17.2953 0.761509 17.148 0.7146 17.0001 0.7146ZM23.8001 3.40007V4.1146L27.8801 7.29679V3.40007H23.8001Z" fill="white"/>
</svg>
