<svg width="40" height="40" viewBox="0 0 40 40" fill="none" xmlns="http://www.w3.org/2000/svg">
<path fill-rule="evenodd" clip-rule="evenodd" d="M32.588 4.99491C32.1681 5.01444 31.7725 5.13651 31.421 5.27323H31.4161C31.0597 5.41483 29.3653 6.12772 26.7921 7.20682C24.2188 8.2908 20.879 9.69705 17.5636 11.0935C10.9425 13.8816 4.43368 16.6258 4.43368 16.6258L4.5118 16.5965C4.5118 16.5965 4.06258 16.743 3.59383 17.0652C3.35457 17.2215 3.0909 17.4363 2.86141 17.7732C2.63192 18.1101 2.44637 18.6277 2.51473 19.1599C2.62704 20.0633 3.21297 20.6053 3.63289 20.9031C4.0577 21.2058 4.46297 21.3474 4.46297 21.3474H4.47274L10.5763 23.4031C10.8497 24.282 12.4366 29.4969 12.8175 30.698C13.0421 31.4158 13.2618 31.865 13.5352 32.2068C13.6671 32.3826 13.8233 32.5291 14.0089 32.6463C14.0821 32.6902 14.1602 32.7244 14.2384 32.7537C14.2628 32.7683 14.2872 32.7732 14.3165 32.7781L14.253 32.7635C14.2725 32.7683 14.2872 32.783 14.3018 32.7879C14.3507 32.8025 14.3848 32.8074 14.4483 32.8172C15.4151 33.1101 16.1915 32.5096 16.1915 32.5096L16.2354 32.4754L19.839 29.1941L25.879 33.8279L26.0157 33.8865C27.2755 34.4383 28.5499 34.1306 29.2237 33.5887C29.9024 33.0418 30.1661 32.3435 30.1661 32.3435L30.21 32.2312L34.878 8.3201C35.0098 7.72928 35.044 7.17752 34.8975 6.64041C34.7511 6.1033 34.3751 5.60038 33.921 5.33182C33.462 5.05838 33.0079 4.97537 32.588 4.99491ZM32.461 7.55841C32.4561 7.63654 32.4708 7.62677 32.4366 7.77814V7.79279L27.8126 31.4549C27.793 31.4891 27.7589 31.5623 27.6661 31.6356C27.5684 31.7137 27.4903 31.7625 27.085 31.6014L19.6973 25.9373L15.2344 30.0047L16.1719 24.0184C16.1719 24.0184 27.7442 13.2322 28.2423 12.7684C28.7403 12.3045 28.5743 12.2068 28.5743 12.2068C28.6085 11.6404 27.8223 12.0408 27.8223 12.0408L12.6026 21.4695L12.5977 21.4451L5.3028 18.9891V18.9842C5.29791 18.9842 5.28815 18.9793 5.28326 18.9793C5.28815 18.9793 5.32233 18.9647 5.32233 18.9647L5.36139 18.9451L5.40045 18.9305C5.40045 18.9305 11.9141 16.1863 18.5352 13.3983C21.8506 12.0018 25.1905 10.5955 27.7589 9.51154C30.3272 8.43243 32.2266 7.64142 32.334 7.59747C32.4366 7.55841 32.3878 7.55841 32.461 7.55841Z" fill="white"/>
</svg>
