<svg width="17" height="16" viewBox="0 0 17 16" fill="none" xmlns="http://www.w3.org/2000/svg">
<path fill-rule="evenodd" clip-rule="evenodd" d="M8.16019 0.377563C8.08624 0.377563 8.01258 0.401018 7.94968 0.448618L0.129679 6.55202C-0.016521 6.66762 -0.0436945 6.88121 0.0719055 7.03081C0.187506 7.17701 0.401095 7.20418 0.550695 7.08858L1.02019 6.72202V15.6603C1.02019 15.8473 1.17319 16.0003 1.36019 16.0003H6.12019V9.8803H10.2002V16.0003H14.9602C15.1472 16.0003 15.3002 15.8473 15.3002 15.6603V6.72202L15.7697 7.08858C15.8343 7.13618 15.9054 7.1603 15.9802 7.1603C16.0822 7.1603 16.1805 7.11581 16.2485 7.03081C16.3641 6.88121 16.3369 6.66762 16.1907 6.55202L8.37069 0.448618C8.30779 0.401018 8.23414 0.377563 8.16019 0.377563ZM11.5602 1.72028V2.07754L13.6002 3.66864V1.72028H11.5602Z" fill="black"/>
</svg>
